<svg xmlns="http://www.w3.org/2000/svg" viewBox="0 0 160.72 94.02"><defs><style>.cls-1{fill:#d9e1da;}</style></defs><g id="Layer_2" data-name="Layer 2"><g id="Layer_1-2" data-name="Layer 1"><path class="cls-1" d="M160.72,67.88H147.16V25.15L129.1,46.22A6.8,6.8,0,0,1,124,48.59h0a6.82,6.82,0,0,1-5.15-2.39L101,25.28v42.6H87.46V6.82a6.78,6.78,0,0,1,12-4.38L124,31.36,148.79,2.41a6.78,6.78,0,0,1,11.93,4.41Z"/><path class="cls-1" d="M52.13,24.18H39.26a7.93,7.93,0,0,0,1-4.44c0-5.43-4.32-8.2-12.86-8.2-9,0-13.54,2.77-13.54,8.43,0,15.19,40.71,3.66,40.71,28.5,0,13.2-9,19.86-27.06,19.86C8.54,68.33,1,61.12,0,48.69a42.3,42.3,0,0,1,12.64-3c.78,8,5.33,11.53,15.64,11.53,9.76,0,13.54-2.66,13.54-8.09C41.82,35.05.89,46.25.89,19.52.89,7.54,9.21,0,27.73,0s26,6.88,26,16.64a17.9,17.9,0,0,1-1.11,6.88Z"/><path class="cls-1" d="M63.33.44H76.75V67.88H63.33Z"/><path class="cls-1" d="M10.77,85.48H8.28a1.54,1.54,0,0,0,.19-.86C8.47,83.57,7.64,83,6,83s-2.62.54-2.62,1.63c0,2.94,7.87.71,7.87,5.52C11.24,92.73,9.5,94,6,94c-3.67,0-5.13-1.4-5.32-3.8a8.17,8.17,0,0,1,2.44-.58c.15,1.54,1,2.23,3,2.23s2.62-.51,2.62-1.57c0-2.72-7.92-.55-7.92-5.72,0-2.32,1.61-3.78,5.19-3.78s5,1.33,5,3.22a3.65,3.65,0,0,1-.21,1.33Z"/><path class="cls-1" d="M21.86,93.93l-1.29-3.65h-5l-1.29,3.65H11.56c.86-2.47,1.7-4.81,2.51-7s1.44-3.74,1.85-4.68l.6-1.39h3q2.1,4.69,5,13ZM16.3,80.5,15,80.16c0-1.48.56-2.23,1.66-2.23A4.36,4.36,0,0,1,18,78.2a4.77,4.77,0,0,0,1.16.26c.4,0,.62-.32.62-.94l1.31.34c0,1.48-.54,2.23-1.63,2.23a4.51,4.51,0,0,1-1.4-.26,3.88,3.88,0,0,0-1.13-.27C16.52,79.56,16.3,79.88,16.3,80.5Zm.09,7.42h3.32L18,83.55Z"/><path class="cls-1" d="M26,82.52a6.55,6.55,0,0,1,4.7-1.72,6.05,6.05,0,0,1,6.48,6.61A6.55,6.55,0,0,1,35.4,92.3,6.49,6.49,0,0,1,30.7,94,6.55,6.55,0,0,1,26,92.3a6.55,6.55,0,0,1-1.78-4.89A6.46,6.46,0,0,1,26,82.52Zm4.72,8.9c2.38,0,3.86-1.44,3.86-4s-1.48-4-3.86-4-3.91,1.48-3.91,4S28.29,91.42,30.72,91.42Z"/><path class="cls-1" d="M43.29,80.89H48c3.44,0,5.15,1.58,5.15,4.74S51.42,90.35,48,90.35h-2.1v3.58H43.29Zm2.59,6.88h2.19c1.63,0,2.47-.83,2.47-2.14s-.84-2.15-2.47-2.15H45.88Z"/><path class="cls-1" d="M62.21,93.93l-1.29-3.65h-5l-1.29,3.65H51.91c.86-2.47,1.69-4.81,2.51-7s1.44-3.74,1.84-4.68l.61-1.39h3q2.1,4.69,5,13Zm-5.47-6h3.32l-1.67-4.37Z"/><path class="cls-1" d="M67.91,80.89V88c0,2.48,1,3.45,3.22,3.45s3.22-1,3.22-3.45V80.89h2.59v7.42c0,4.12-2,5.71-5.81,5.71s-5.81-1.59-5.81-5.71V80.89Z"/><path class="cls-1" d="M81.49,91.33H87.3v2.6H78.89v-13h2.6Z"/><path class="cls-1" d="M89.25,82.52A6.57,6.57,0,0,1,94,80.8a6.05,6.05,0,0,1,6.48,6.61,6.55,6.55,0,0,1-1.78,4.89A6.47,6.47,0,0,1,94,94a6.05,6.05,0,0,1-6.48-6.61A6.46,6.46,0,0,1,89.25,82.52ZM94,91.42c2.39,0,3.87-1.44,3.87-4s-1.48-4-3.87-4-3.9,1.48-3.9,4S91.55,91.42,94,91.42Z"/></g></g></svg>