<svg width="291" height="97" viewBox="0 0 291 97" fill="none" xmlns="http://www.w3.org/2000/svg">
<path d="M281.267 0.0542032C287.21 0.642322 291.542 5.86067 290.945 11.7103C290.347 17.5593 285.046 21.8243 279.103 21.2361C273.161 20.648 268.829 15.4297 269.426 9.58069C270.024 3.73107 275.325 -0.533915 281.267 0.0542032Z" fill="#0097FF"/>
<path d="M265.443 20.508C265.864 16.3925 262.815 12.7214 258.635 12.3072C254.454 11.8937 250.724 14.8942 250.304 19.0097C249.883 23.1246 252.932 26.7963 257.113 27.2099C261.293 27.6234 265.023 24.6229 265.443 20.508Z" fill="#0097FF"/>
<path d="M221.957 15.2787H233.052C233.679 15.2787 234.187 15.7792 234.187 16.3957V78.1842C234.187 78.8013 233.679 79.3018 233.052 79.3018H221.957C221.331 79.3018 220.823 78.8013 220.823 78.1842V16.3957C220.823 15.7792 221.331 15.2787 221.957 15.2787Z" fill="#0097FF"/>
<path d="M10.9395 59.0646L0.567789 64.9831C0.0737119 65.2653 -0.133735 65.8663 0.0894177 66.3836C3.76849 74.9142 12.0134 80.6414 24.6637 80.6414C38.2066 80.6414 47.829 73.6252 47.829 61.7855C47.829 48.8057 37.2263 45.5604 27.7819 42.7545C18.0705 39.8602 16.5556 37.9303 16.5556 35.1237C16.5556 32.6682 18.7832 30.4761 23.2384 30.4761C28.4802 30.4761 31.3884 32.7738 33.4851 36.5512C33.792 37.1052 34.5014 37.3016 35.0543 36.9834L45.1165 31.1873C45.6426 30.8839 45.8344 30.2236 45.5451 29.6954C40.925 21.2781 33.1166 16.7941 23.2384 16.7941C12.457 16.7941 2.3 23.6351 2.3 35.4748C2.3 47.2269 11.3884 51.6123 20.6541 54.1555C30.0095 56.6986 33.5734 58.1898 33.5734 61.9607C33.5734 64.3287 31.8805 66.9601 25.1093 66.9601C18.5777 66.9601 14.8083 64.015 12.5192 59.5258C12.2267 58.9532 11.5029 58.7432 10.9395 59.0646Z" fill="#0097FF"/>
<path fill-rule="evenodd" clip-rule="evenodd" d="M285.679 79.1595C286.302 79.1595 286.808 78.6622 286.808 78.0483V36.6468C286.808 36.033 286.302 35.5357 285.679 35.5357H274.642C274.017 35.5357 273.512 36.033 273.512 36.6468V39.6357C270.587 36.3203 266.244 34.3137 260.306 34.3137C248.694 34.3137 239.122 44.3471 239.122 57.3476C239.122 70.3474 248.694 80.3808 260.306 80.3808C266.244 80.3808 270.587 78.3743 273.512 75.0588V78.0483C273.512 78.6622 274.017 79.1595 274.642 79.1595H285.679ZM273.512 57.3476C273.512 50.8036 269.081 46.7035 262.964 46.7035C256.849 46.7035 252.417 50.8036 252.417 57.3476C252.417 63.891 256.849 67.9917 262.964 67.9917C269.081 67.9917 273.512 63.891 273.512 57.3476Z" fill="#0097FF"/>
<path d="M93.4475 35.5625C94.2308 35.5625 94.7785 36.3245 94.5181 37.0511L79.8155 78.0983C74.9755 91.625 67.3687 97.2293 55.5318 96.9928C54.9154 96.9806 54.4226 96.4814 54.4226 95.8746V85.7696C54.4226 85.1718 54.9029 84.6791 55.5102 84.6546C60.8482 84.4381 63.5568 82.5411 65.3964 77.8291C65.5017 77.5579 65.5011 77.2577 65.3872 76.9897L48.4852 37.1097C48.173 36.3741 48.7227 35.5625 49.5329 35.5625H61.735C62.2127 35.5625 62.6387 35.8568 62.8016 36.2987L72.4201 62.3995L80.5491 36.3516C80.6957 35.8826 81.1361 35.5625 81.6341 35.5625H93.4475Z" fill="#0097FF"/>
<path fill-rule="evenodd" clip-rule="evenodd" d="M194.521 80.6412C206.193 80.6412 215.815 70.5556 215.815 57.4881C215.815 44.4201 206.193 34.3344 194.521 34.3344C188.551 34.3344 184.186 36.3513 181.245 39.6842V36.7996C181.245 36.1162 180.683 35.5622 179.988 35.5622H169.138C168.444 35.5622 167.881 36.1162 167.881 36.7996V95.7165C167.881 96.4 168.444 96.9539 169.138 96.9539H179.988C180.683 96.9539 181.245 96.4 181.245 95.7165V75.2915C184.186 78.6243 188.551 80.6412 194.521 80.6412ZM191.848 46.7886C197.996 46.7886 202.451 50.9106 202.451 57.4881C202.451 64.0657 197.996 68.1877 191.848 68.1877C185.701 68.1877 181.246 64.0657 181.246 57.4881C181.246 50.9106 185.701 46.7886 191.848 46.7886Z" fill="#0097FF"/>
<path d="M128.534 38.8747C132.649 34.1897 138.706 33.7001 144.282 33.7001C154.529 33.7001 161.207 40.8922 161.207 51.8545V77.6622C161.207 78.2793 160.874 79.3015 160.247 79.3015H149.153C148.526 79.3015 148.042 78.2793 148.042 77.6622V52.9947C148.042 48.6099 146.004 45.8033 141.727 45.8033C137.273 45.8033 134.877 48.8727 134.877 54.0472V77.6622C134.877 78.2793 134.145 79.3015 133.518 79.3015H123.58C122.953 79.3015 122.219 78.2793 122.219 77.6622V54.0472C122.219 48.8727 119.825 45.8033 115.37 45.8033C111.093 45.8033 109.055 48.6099 109.055 52.9947V77.6622C109.055 78.2793 108.573 79.3015 107.945 79.3015H96.8512C96.2236 79.3015 95.8899 78.2793 95.8899 77.6622V51.8545C95.8899 40.8922 102.562 33.7001 112.808 33.7001C118.384 33.7001 124.419 34.1897 128.534 38.8747Z" fill="#0097FF"/>
<path d="M281.267 0.0542032C287.21 0.642322 291.542 5.86067 290.945 11.7103C290.347 17.5593 285.046 21.8243 279.103 21.2361C273.161 20.648 268.829 15.4297 269.426 9.58069C270.024 3.73107 275.325 -0.533915 281.267 0.0542032Z" fill="#0097FF"/>
<path d="M265.443 20.508C265.864 16.3925 262.815 12.7214 258.635 12.3072C254.454 11.8937 250.724 14.8942 250.304 19.0097C249.883 23.1246 252.932 26.7963 257.113 27.2099C261.293 27.6234 265.023 24.6229 265.443 20.508Z" fill="#0097FF"/>
<path d="M221.957 15.2787H233.052C233.679 15.2787 234.187 15.7792 234.187 16.3957V78.1842C234.187 78.8013 233.679 79.3018 233.052 79.3018H221.957C221.331 79.3018 220.823 78.8013 220.823 78.1842V16.3957C220.823 15.7792 221.331 15.2787 221.957 15.2787Z" fill="#0097FF"/>
<path d="M10.9395 59.0646L0.567789 64.9831C0.0737119 65.2653 -0.133735 65.8663 0.0894177 66.3836C3.76849 74.9142 12.0134 80.6414 24.6637 80.6414C38.2066 80.6414 47.829 73.6252 47.829 61.7855C47.829 48.8057 37.2263 45.5604 27.7819 42.7545C18.0705 39.8602 16.5556 37.9303 16.5556 35.1237C16.5556 32.6682 18.7832 30.4761 23.2384 30.4761C28.4802 30.4761 31.3884 32.7738 33.4851 36.5512C33.792 37.1052 34.5014 37.3016 35.0543 36.9834L45.1165 31.1873C45.6426 30.8839 45.8344 30.2236 45.5451 29.6954C40.925 21.2781 33.1166 16.7941 23.2384 16.7941C12.457 16.7941 2.3 23.6351 2.3 35.4748C2.3 47.2269 11.3884 51.6123 20.6541 54.1555C30.0095 56.6986 33.5734 58.1898 33.5734 61.9607C33.5734 64.3287 31.8805 66.9601 25.1093 66.9601C18.5777 66.9601 14.8083 64.015 12.5192 59.5258C12.2267 58.9532 11.5029 58.7432 10.9395 59.0646Z" fill="#0097FF"/>
<path fill-rule="evenodd" clip-rule="evenodd" d="M285.679 79.1595C286.302 79.1595 286.808 78.6622 286.808 78.0483V36.6468C286.808 36.033 286.302 35.5357 285.679 35.5357H274.642C274.017 35.5357 273.512 36.033 273.512 36.6468V39.6357C270.587 36.3203 266.244 34.3137 260.306 34.3137C248.694 34.3137 239.122 44.3471 239.122 57.3476C239.122 70.3474 248.694 80.3808 260.306 80.3808C266.244 80.3808 270.587 78.3743 273.512 75.0588V78.0483C273.512 78.6622 274.017 79.1595 274.642 79.1595H285.679ZM273.512 57.3476C273.512 50.8036 269.081 46.7035 262.964 46.7035C256.849 46.7035 252.417 50.8036 252.417 57.3476C252.417 63.891 256.849 67.9917 262.964 67.9917C269.081 67.9917 273.512 63.891 273.512 57.3476Z" fill="#0097FF"/>
<path d="M93.4475 35.5625C94.2308 35.5625 94.7785 36.3245 94.5181 37.0511L79.8155 78.0983C74.9755 91.625 67.3687 97.2293 55.5318 96.9928C54.9154 96.9806 54.4226 96.4814 54.4226 95.8746V85.7696C54.4226 85.1718 54.9029 84.6791 55.5102 84.6546C60.8482 84.4381 63.5568 82.5411 65.3964 77.8291C65.5017 77.5579 65.5011 77.2577 65.3872 76.9897L48.4852 37.1097C48.173 36.3741 48.7227 35.5625 49.5329 35.5625H61.735C62.2127 35.5625 62.6387 35.8568 62.8016 36.2987L72.4201 62.3995L80.5491 36.3516C80.6957 35.8826 81.1361 35.5625 81.6341 35.5625H93.4475Z" fill="#0097FF"/>
<path fill-rule="evenodd" clip-rule="evenodd" d="M194.521 80.6412C206.193 80.6412 215.815 70.5556 215.815 57.4881C215.815 44.4201 206.193 34.3344 194.521 34.3344C188.551 34.3344 184.186 36.3513 181.245 39.6842V36.7996C181.245 36.1162 180.683 35.5622 179.988 35.5622H169.138C168.444 35.5622 167.881 36.1162 167.881 36.7996V95.7165C167.881 96.4 168.444 96.9539 169.138 96.9539H179.988C180.683 96.9539 181.245 96.4 181.245 95.7165V75.2915C184.186 78.6243 188.551 80.6412 194.521 80.6412ZM191.848 46.7886C197.996 46.7886 202.451 50.9106 202.451 57.4881C202.451 64.0657 197.996 68.1877 191.848 68.1877C185.701 68.1877 181.246 64.0657 181.246 57.4881C181.246 50.9106 185.701 46.7886 191.848 46.7886Z" fill="#0097FF"/>
<path d="M128.534 38.8747C132.649 34.1897 138.706 33.7001 144.282 33.7001C154.529 33.7001 161.207 40.8922 161.207 51.8545V77.6622C161.207 78.2793 160.874 79.3015 160.247 79.3015H149.153C148.526 79.3015 148.042 78.2793 148.042 77.6622V52.9947C148.042 48.6099 146.004 45.8033 141.727 45.8033C137.273 45.8033 134.877 48.8727 134.877 54.0472V77.6622C134.877 78.2793 134.145 79.3015 133.518 79.3015H123.58C122.953 79.3015 122.219 78.2793 122.219 77.6622V54.0472C122.219 48.8727 119.825 45.8033 115.37 45.8033C111.093 45.8033 109.055 48.6099 109.055 52.9947V77.6622C109.055 78.2793 108.573 79.3015 107.945 79.3015H96.8512C96.2236 79.3015 95.8899 78.2793 95.8899 77.6622V51.8545C95.8899 40.8922 102.562 33.7001 112.808 33.7001C118.384 33.7001 124.419 34.1897 128.534 38.8747Z" fill="#0097FF"/>
</svg>
