<svg xmlns="http://www.w3.org/2000/svg" width="184.338" height="40.479" viewBox="0 0 184.338 40.479"><path d="M47.09 19.735c-1.539 0-2.74-.434-3.604-1.301s-1.295-2.078-1.295-3.633c0-1.547.303-2.986.908-4.318s1.426-2.36 2.461-3.088a5.904 5.904 0 0 1 3.475-1.09c1.258 0 2.236.283 2.936.851.7.566 1.049 1.368 1.049 2.407 0 1.422-.65 2.533-1.951 3.334-1.301.802-3.154 1.201-5.561 1.201h-.504l-.023.363v.34c0 .867.221 1.547.662 2.039.441.492 1.1.738 1.975.738.562 0 1.121-.074 1.676-.224.555-.148 1.211-.401 1.969-.762v2.191c-.75.344-1.439.588-2.068.731a9.324 9.324 0 0 1-2.105.221zm1.781-11.321c-.75 0-1.455.336-2.115 1.008s-1.135 1.559-1.424 2.66h.34c1.469 0 2.617-.209 3.445-.627.828-.418 1.243-1.01 1.243-1.775 0-.397-.125-.709-.375-.932-.25-.223-.621-.334-1.114-.334zm12.118-2.109c1.398 0 2.445.695 3.141 2.086h.094c.102-1.141.246-2.117.434-2.93l.891-4.195h2.73L64.411 19.5h-2.156l.223-2.062h-.082c-.688.828-1.352 1.418-1.992 1.771-.64.352-1.32.526-2.039.526-1.117 0-1.992-.396-2.625-1.188-.633-.793-.949-1.916-.949-3.369 0-1.602.279-3.098.838-4.488.559-1.39 1.307-2.469 2.244-3.233.937-.767 1.975-1.152 3.116-1.152zm-1.571 11.203c.641 0 1.275-.32 1.904-.961s1.133-1.478 1.512-2.508a9.007 9.007 0 0 0 .568-3.129c0-.711-.17-1.281-.51-1.711-.34-.431-.857-.646-1.553-.646-.664 0-1.285.301-1.863.902-.578.601-1.039 1.426-1.383 2.473a10.185 10.185 0 0 0-.516 3.199c.002 1.588.615 2.381 1.841 2.381zM71.043 19.5h-2.766l2.766-12.961h2.754L71.043 19.5zm.551-16.148c0-.531.152-.961.457-1.289.306-.328.733-.492 1.289-.492.414 0 .75.104 1.008.312.259.207.388.521.388.943 0 .555-.156.991-.47 1.312s-.723.48-1.229.48c-.414 0-.758-.103-1.031-.306-.274-.203-.412-.523-.412-.96zm12.07 2.953c.483 0 .905.047 1.266.141l-.598 2.566a4.792 4.792 0 0 0-1.195-.164c-.983 0-1.862.441-2.637 1.324s-1.312 2.039-1.617 3.469L77.641 19.5h-2.766l2.766-12.961h2.156l-.246 2.401h.104c.648-.938 1.297-1.61 1.945-2.021s1.338-.614 2.064-.614zm6.293 13.383c-1.798 0-2.888-.854-3.271-2.565h-.046c-.102.562-.684 3.276-1.746 8.145h-1.16l3.938-18.504h.961l-.526 3.211h.069c.711-1.195 1.476-2.07 2.291-2.625s1.709-.832 2.679-.832c1.055 0 1.866.361 2.438 1.084.57.724.855 1.826.855 3.312 0 1.522-.281 2.973-.845 4.348s-1.334 2.457-2.313 3.246c-.981.787-2.091 1.18-3.324 1.18zm2.93-12.117c-.68 0-1.358.229-2.039.687-.68.457-1.312 1.111-1.893 1.963a9.396 9.396 0 0 0-1.296 2.783c-.28 1.004-.422 1.817-.422 2.442 0 .978.24 1.761.722 2.351s1.139.885 1.976.885c.969 0 1.848-.328 2.637-.983.789-.656 1.43-1.607 1.922-2.854s.738-2.518.738-3.814c-.003-2.308-.784-3.46-2.345-3.46zm10.195 12.164c-1.353 0-2.406-.428-3.164-1.282-.759-.855-1.138-2.05-1.138-3.58 0-1.414.277-2.771.832-4.066.556-1.296 1.318-2.328 2.291-3.094.974-.767 2.045-1.148 3.217-1.148.892 0 1.603.238 2.134.715.53.478.797 1.125.797 1.945 0 1.414-.64 2.492-1.916 3.234s-3.174 1.112-5.688 1.112h-.387c-.048.345-.07.728-.07 1.148 0 1.289.289 2.271.867 2.947s1.409 1.014 2.496 1.014c1.03 0 2.108-.285 3.233-.854v1.102a7.855 7.855 0 0 1-3.504.807zm1.897-12.164c-1.022 0-1.975.451-2.854 1.354s-1.514 2.107-1.904 3.615h.574c4.039 0 6.059-1.056 6.059-3.164 0-.523-.17-.955-.51-1.295s-.793-.51-1.365-.51zm11.158-1.008c1.798 0 2.888.855 3.271 2.566h.047c.094-.517.652-3.137 1.676-7.863h1.16L118.422 19.5h-.961l.526-3.211h-.069c-1.353 2.297-3.009 3.444-4.97 3.444-2.194 0-3.293-1.461-3.293-4.383 0-1.508.279-2.953.838-4.336.56-1.383 1.33-2.471 2.314-3.264s2.094-1.187 3.33-1.187zm-2.918 12.117c.695 0 1.394-.244 2.093-.731.698-.488 1.323-1.146 1.875-1.97a9.583 9.583 0 0 0 1.248-2.707c.28-.979.422-1.799.422-2.455 0-.983-.24-1.771-.722-2.36s-1.14-.886-1.976-.886c-.969 0-1.844.324-2.625.974-.78.648-1.422 1.596-1.922 2.842s-.75 2.525-.75 3.838c0 2.303.785 3.455 2.357 3.455zm16.875-12.141a5.75 5.75 0 0 1 1.44.164l-.245 1.09c-.367-.117-.81-.176-1.324-.176-.733 0-1.435.25-2.099.75s-1.262 1.25-1.793 2.25c-.53 1-.922 2.082-1.172 3.245l-1.172 5.638h-1.147l2.707-12.738h.938l-.341 2.391h.07c.569-.733 1.051-1.264 1.44-1.588a4.86 4.86 0 0 1 1.248-.756c.443-.18.925-.27 1.45-.27zm8.061-.023c1.406 0 2.494.424 3.265 1.271.771.847 1.153 2.018 1.153 3.51 0 1.539-.278 2.979-.838 4.318-.559 1.339-1.321 2.36-2.291 3.063-.969.703-2.086 1.055-3.352 1.055-1.438 0-2.529-.428-3.275-1.282-.746-.855-1.119-2.08-1.119-3.675 0-1.491.285-2.891.855-4.194.57-1.305 1.34-2.31 2.309-3.013.97-.702 2.068-1.053 3.293-1.053zm-.093 1.008c-.969 0-1.84.308-2.613.92-.772.613-1.391 1.492-1.852 2.638a9.643 9.643 0 0 0-.691 3.639c0 2.672 1.103 4.008 3.306 4.008.991 0 1.873-.303 2.644-.908.77-.604 1.383-1.495 1.84-2.672.457-1.176.686-2.467.686-3.873 0-1.202-.285-2.129-.855-2.776-.573-.65-1.394-.976-2.465-.976zM7.045 28.571l1.794 6.734c.13.507.195.977.195.977h.026s.039-.481.169-.977l1.69-6.734h1.326L9.84 37.75H8.345l-1.586-5.954c-.156-.585-.273-1.3-.273-1.3h-.027s-.117.715-.273 1.3L4.6 37.75H3.105l-2.34-9.18h1.326l1.625 6.734a9 9 0 0 1 .169.977h.026s.065-.47.195-.977L5.9 28.571h1.145zm6.863 0h5.33v1.118h-4.043v2.873h3.289v1.118h-3.289v2.951h4.264v1.118h-5.551v-9.178zm7.449 0h3.211c1.547 0 2.665.858 2.665 2.342 0 .896-.442 1.61-1.144 1.976v.026c.962.286 1.508 1.195 1.508 2.223 0 1.729-1.339 2.613-2.951 2.613h-3.289v-9.18zm3.211 3.861c.832 0 1.352-.585 1.352-1.391 0-.808-.494-1.354-1.378-1.354h-1.898v2.743l1.924.002zm.143 4.199c.988 0 1.573-.624 1.573-1.561s-.624-1.572-1.586-1.572h-2.054v3.133h2.067zm8.229-8.06h3.042c2.808 0 4.654 1.679 4.654 4.576 0 2.912-1.846 4.604-4.654 4.604H32.94v-9.18zm2.951 8.06c2.067 0 3.419-1.222 3.419-3.484 0-2.249-1.365-3.458-3.419-3.458h-1.664v6.942h1.664zm6.669-8.06h5.33v1.118h-4.043v2.873h3.289v1.118h-3.289v2.951h4.264v1.118H42.56v-9.178zm7.474 7.15s.975.988 2.34.988c.858 0 1.586-.481 1.586-1.353 0-1.988-4.446-1.561-4.446-4.382 0-1.43 1.235-2.561 2.964-2.561 1.703 0 2.6.923 2.6.923l-.585 1.064s-.845-.793-2.015-.793c-.975 0-1.664.611-1.664 1.341 0 1.896 4.446 1.391 4.446 4.367 0 1.417-1.092 2.587-2.912 2.587-1.95 0-3.042-1.209-3.042-1.209l.728-.972zm7.073-7.15h1.287v9.18h-1.287v-9.18zm7.852-.156c2.197 0 3.341 1.104 3.341 1.104l-.65.962s-1.027-.896-2.587-.896c-2.158 0-3.458 1.573-3.458 3.536 0 2.132 1.456 3.601 3.38 3.601 1.586 0 2.6-1.144 2.6-1.144v-1.326H66.09v-1.118h2.665v4.615h-1.131v-.572c0-.194.013-.39.013-.39h-.026s-1.001 1.118-2.821 1.118c-2.47 0-4.511-1.95-4.511-4.76 0-2.65 2.002-4.73 4.68-4.73zm5.81.156h1.274l4.083 5.969c.338.494.767 1.326.767 1.326h.026s-.091-.819-.091-1.326v-5.969h1.287v9.18h-1.261l-4.095-5.954c-.338-.507-.767-1.339-.767-1.339h-.026s.091.817.091 1.339v5.954H70.77l-.001-9.18zm9.841 0h5.33v1.118h-4.043v2.873h3.289v1.118h-3.289v2.951h4.264v1.118H80.61v-9.178zm7.449 0h2.808c.962 0 1.365.078 1.716.208.936.353 1.547 1.274 1.547 2.483 0 1.17-.648 2.158-1.651 2.483v.024s.104.117.273.416l1.949 3.562h-1.455l-1.938-3.653h-1.962v3.653h-1.287v-9.176zm3.134 4.407c1.001 0 1.625-.637 1.625-1.664 0-.676-.259-1.156-.728-1.417-.247-.13-.546-.208-1.261-.208h-1.483v3.289h1.847zm9.606-.155v-.026s-1.209-.416-1.209-2.015c0-1.521 1.196-2.366 2.821-2.366.507 0 1.117.143 1.117.143l-.324 1.027s-.377-.078-.689-.078c-.91 0-1.625.507-1.625 1.404 0 .57.273 1.441 1.69 1.441h1.702v-1.248h1.262v1.248h1.223v1.118h-1.223v1.223c0 2.041-1.209 3.212-3.172 3.212-1.911 0-3.186-1.185-3.186-2.73.001-1.015.599-2.016 1.613-2.353zm1.573 3.899c1.17 0 1.91-.637 1.91-2.08v-1.17h-1.754c-1.301 0-2.028.611-2.028 1.639 0 .883.728 1.611 1.872 1.611zm9.594-8.151h3.042c2.808 0 4.654 1.679 4.654 4.576 0 2.912-1.847 4.604-4.654 4.604h-3.042v-9.18zm2.951 8.06c2.066 0 3.419-1.222 3.419-3.484 0-2.249-1.364-3.458-3.419-3.458h-1.664v6.942h1.664zm6.669-8.06h5.33v1.118h-4.043v2.873h3.289v1.118h-3.289v2.951h4.265v1.118h-5.552v-9.178zm6.278 0h1.392l2.274 6.487c.17.494.352 1.262.352 1.262h.025s.183-.768.352-1.262l2.301-6.487h1.365l-3.38 9.18h-1.287l-3.394-9.18zm9.387 0h5.33v1.118h-4.043v2.873h3.289v1.118h-3.289v2.951h4.264v1.118h-5.551v-9.178zm7.449 0h1.287v8.062h4.106v1.118h-5.396v-9.18h.003zm10.738-.156c2.65 0 4.705 2.041 4.705 4.68 0 2.704-2.055 4.812-4.705 4.812-2.652 0-4.721-2.106-4.721-4.812.002-2.639 2.069-4.68 4.721-4.68zm0 8.307c1.871 0 3.379-1.56 3.379-3.627 0-2.002-1.508-3.51-3.379-3.51-1.873 0-3.395 1.508-3.395 3.51.002 2.067 1.522 3.627 3.395 3.627zm6.577-8.151h3.354c1.677 0 2.886 1.133 2.886 2.873 0 1.742-1.209 2.912-2.886 2.912h-2.067v3.395h-1.287v-9.18zm3.146 4.669c1.105 0 1.781-.689 1.781-1.796 0-1.104-.676-1.755-1.769-1.755h-1.872v3.551h1.86zm4.744-4.669h5.33v1.118h-4.043v2.873h3.289v1.118h-3.289v2.951h4.266v1.118h-5.553v-9.178zm7.449 0h2.809c.963 0 1.365.078 1.717.208.936.353 1.547 1.274 1.547 2.483 0 1.17-.65 2.158-1.65 2.483v.024s.104.117.272.416l1.95 3.562h-1.457l-1.938-3.653h-1.963v3.653h-1.287v-9.176zm3.135 4.407c1 0 1.625-.637 1.625-1.664 0-.676-.262-1.156-.729-1.417-.247-.13-.546-.208-1.262-.208h-1.481v3.289h1.847z" fill="#FFF"/></svg>